
<svg version="1.1" xmlns="http://www.w3.org/2000/svg" width="512" height="512" viewBox="0 0 512 512" preserveAspectRatio="xMidYMid meet">
<path d="M0 0 C12.75871151 8.28191582 24.45856337 18.04245403 35 29 C35.79277344 29.79148438 36.58554687 30.58296875 37.40234375 31.3984375 C51.55427304 45.57164788 62.80304103 61.21011086 72 79 C72.37753418 79.72380859 72.75506836 80.44761719 73.14404297 81.19335938 C91.42374452 116.66441128 97.51505257 156.81302795 92.2109375 196.3046875 C86.01158094 237.80101546 68.83766798 276.23305141 40 307 C36.16955328 310.94615813 32.25619775 314.80742495 28.33984375 318.66796875 C25.3110318 321.66516992 22.4591308 324.7615806 19.703125 328.01171875 C12.07882045 336.91256971 3.87949697 345.35184396 -4.14453125 353.890625 C-6.71167355 356.62353617 -9.27138435 359.36309437 -11.82421875 362.109375 C-12.44192139 362.77348389 -13.05962402 363.43759277 -13.69604492 364.12182617 C-14.85480861 365.36841063 -16.01260692 366.61589355 -17.16918945 367.86450195 C-19.96116565 370.86620406 -22.79389922 373.81065291 -25.703125 376.69921875 C-27.99290591 378.97348538 -30.18026733 381.27086965 -32.25 383.75 C-35.18279622 387.1583848 -38.30072901 390.34399164 -41.5 393.5 C-44.61580242 396.57389519 -47.65877297 399.66702214 -50.5 403 C-53.7823339 406.85043015 -57.35254849 410.38145579 -60.95092773 413.93139648 C-64.20000607 417.15366448 -67.22443863 420.49340645 -70.19140625 423.97265625 C-73.17238449 427.31418478 -76.39815768 430.408143 -79.58984375 433.546875 C-81.71065019 435.70549161 -83.6420224 437.915127 -85.5625 440.25 C-89.40306045 444.73672109 -94.26224101 448.77904867 -99.94921875 450.63671875 C-106.23687781 451.75053264 -112.17037052 451.76854625 -118.0625 449.125 C-126.17072244 444.58182139 -132.06274489 437.17299532 -138.0234375 430.1953125 C-140.57961739 427.35623524 -143.28269828 424.68398614 -146 422 C-149.89896095 418.14878387 -153.60824302 414.23578266 -157.16015625 410.05859375 C-159.95766867 406.92846838 -162.96624506 404.01314342 -165.95336914 401.06616211 C-169.17998653 397.86614229 -172.17930461 394.54927728 -175.125 391.09375 C-177.93600311 387.95479653 -180.95267797 385.02649319 -183.95092773 382.06860352 C-187.20000607 378.84633552 -190.22443863 375.50659355 -193.19140625 372.02734375 C-196.1740589 368.6839383 -199.40356692 365.5892363 -202.58984375 362.44140625 C-205.26854532 359.72797273 -207.74608118 356.89222977 -210.22265625 353.99609375 C-212.94733093 350.93607449 -215.88878072 348.10293156 -218.8046875 345.2265625 C-221.44006743 342.55366826 -223.87766489 339.74631697 -226.3203125 336.8984375 C-227.98204576 335.02029247 -229.71125525 333.25694484 -231.5 331.5 C-233.79326036 329.24202057 -235.96428028 326.94003496 -238.0625 324.5 C-240.93268 321.16543132 -243.90845779 317.949052 -246.92602539 314.7487793 C-259.0183104 301.91195526 -269.61115741 288.97175606 -279 274 C-279.61488281 273.02836914 -279.61488281 273.02836914 -280.2421875 272.03710938 C-300.5397572 239.51331901 -309.30752916 199.51969454 -307.78515625 161.44921875 C-305.50540081 118.87846291 -291.14711032 79.35025652 -264.96875 45.6796875 C-260.58848942 40.17869618 -255.8848744 35.05785154 -251 30 C-250.08039807 29.0172368 -249.16113063 28.0341605 -248.2421875 27.05078125 C-221.63131582 -0.96307574 -184.47258572 -19.07285777 -147 -27 C-95.4688596 -36.86416725 -44.47333632 -27.97737905 0 0 Z " fill="#EDEDED" transform="translate(363,46)" />
<path d="M0 0 C12.75871151 8.28191582 24.45856337 18.04245403 35 29 C35.79277344 29.79148438 36.58554687 30.58296875 37.40234375 31.3984375 C51.55427304 45.57164788 62.80304103 61.21011086 72 79 C72.37753418 79.72380859 72.75506836 80.44761719 73.14404297 81.19335938 C91.42374452 116.66441128 97.51505257 156.81302795 92.2109375 196.3046875 C86.01158094 237.80101546 68.83766798 276.23305141 40 307 C36.16955328 310.94615813 32.25619775 314.80742495 28.33984375 318.66796875 C25.3110318 321.66516992 22.4591308 324.7615806 19.703125 328.01171875 C12.07882045 336.91256971 3.87949697 345.35184396 -4.14453125 353.890625 C-6.71167355 356.62353617 -9.27138435 359.36309437 -11.82421875 362.109375 C-12.44192139 362.77348389 -13.05962402 363.43759277 -13.69604492 364.12182617 C-14.85480861 365.36841063 -16.01260692 366.61589355 -17.16918945 367.86450195 C-19.96116565 370.86620406 -22.79389922 373.81065291 -25.703125 376.69921875 C-27.99290591 378.97348538 -30.18026733 381.27086965 -32.25 383.75 C-35.18279622 387.1583848 -38.30072901 390.34399164 -41.5 393.5 C-44.61580242 396.57389519 -47.65877297 399.66702214 -50.5 403 C-53.7823339 406.85043015 -57.35254849 410.38145579 -60.95092773 413.93139648 C-64.20000607 417.15366448 -67.22443863 420.49340645 -70.19140625 423.97265625 C-73.17238449 427.31418478 -76.39815768 430.408143 -79.58984375 433.546875 C-81.71065019 435.70549161 -83.6420224 437.915127 -85.5625 440.25 C-89.40306045 444.73672109 -94.26224101 448.77904867 -99.94921875 450.63671875 C-106.23687781 451.75053264 -112.17037052 451.76854625 -118.0625 449.125 C-126.17072244 444.58182139 -132.06274489 437.17299532 -138.0234375 430.1953125 C-140.57961739 427.35623524 -143.28269828 424.68398614 -146 422 C-149.89896095 418.14878387 -153.60824302 414.23578266 -157.16015625 410.05859375 C-159.95766867 406.92846838 -162.96624506 404.01314342 -165.95336914 401.06616211 C-169.17998653 397.86614229 -172.17930461 394.54927728 -175.125 391.09375 C-177.93600311 387.95479653 -180.95267797 385.02649319 -183.95092773 382.06860352 C-187.20000607 378.84633552 -190.22443863 375.50659355 -193.19140625 372.02734375 C-196.1740589 368.6839383 -199.40356692 365.5892363 -202.58984375 362.44140625 C-205.26854532 359.72797273 -207.74608118 356.89222977 -210.22265625 353.99609375 C-212.94733093 350.93607449 -215.88878072 348.10293156 -218.8046875 345.2265625 C-221.44006743 342.55366826 -223.87766489 339.74631697 -226.3203125 336.8984375 C-227.98204576 335.02029247 -229.71125525 333.25694484 -231.5 331.5 C-233.79326036 329.24202057 -235.96428028 326.94003496 -238.0625 324.5 C-240.93268 321.16543132 -243.90845779 317.949052 -246.92602539 314.7487793 C-259.0183104 301.91195526 -269.61115741 288.97175606 -279 274 C-279.61488281 273.02836914 -279.61488281 273.02836914 -280.2421875 272.03710938 C-300.5397572 239.51331901 -309.30752916 199.51969454 -307.78515625 161.44921875 C-305.50540081 118.87846291 -291.14711032 79.35025652 -264.96875 45.6796875 C-260.58848942 40.17869618 -255.8848744 35.05785154 -251 30 C-250.08039807 29.0172368 -249.16113063 28.0341605 -248.2421875 27.05078125 C-221.63131582 -0.96307574 -184.47258572 -19.07285777 -147 -27 C-95.4688596 -36.86416725 -44.47333632 -27.97737905 0 0 Z M-204.1875 42.375 C-206.48567988 44.21847865 -208.75070706 46.09726479 -211 48 C-211.52190918 48.44069824 -212.04381836 48.88139648 -212.58154297 49.33544922 C-235.9922115 69.3603693 -253.40742108 96.64739346 -261.65234375 126.35009766 C-262.98308849 131.52847771 -264.04240049 136.74131795 -265 142 C-265.33837891 143.75570312 -265.33837891 143.75570312 -265.68359375 145.546875 C-269.58321056 169.32109059 -267.77917454 195.18987805 -260 218 C-259.79004395 218.62148926 -259.58008789 219.24297852 -259.36376953 219.88330078 C-252.38487549 240.27261866 -242.20282342 258.73472038 -228 275 C-227.15695313 275.97710937 -226.31390625 276.95421875 -225.4453125 277.9609375 C-205.30601317 300.88443772 -177.71287969 317.61914307 -148.18359375 325.3203125 C-143.81624532 326.37288656 -139.42252918 327.2170438 -135 328 C-133.83210937 328.22429687 -132.66421875 328.44859375 -131.4609375 328.6796875 C-99.21780141 333.99289051 -65.67954239 328.24475435 -36.34375 314.22265625 C-23.2869446 307.68536734 -11.80387912 299.77773049 -1 290 C-0.14277344 289.27425781 0.71445312 288.54851562 1.59765625 287.80078125 C25.42978279 267.36784867 41.07835997 238.09515923 49 208 C56.29711221 176.36832165 54.68562387 142.7764185 42.99072266 112.37646484 C29.91253629 80.26564962 8.14435956 53.59289042 -20.78417969 34.42382812 C-49.51642403 15.96124009 -83.05473055 8.61520509 -116.88427734 9.8359375 C-148.43823723 11.49745302 -179.26422798 22.93662708 -204.1875 42.375 Z " fill="#F44336" transform="translate(363,46)" />
<path d="M0 0 C1.73469795 -0.01062721 1.73469795 -0.01062721 3.50444031 -0.02146912 C5.39422607 -0.01775299 5.39422607 -0.01775299 7.32218933 -0.01396179 C8.66953819 -0.0183116 10.01688457 -0.02349565 11.36422729 -0.02944946 C15.01727237 -0.04282415 18.67021388 -0.04341968 22.32327867 -0.04088616 C25.37725233 -0.03981507 28.43120516 -0.04470352 31.48517436 -0.04949158 C38.69388275 -0.0605822 45.90253904 -0.06102717 53.11125183 -0.05497742 C60.53608566 -0.04894182 67.96072978 -0.06123905 75.38553125 -0.08254749 C81.76958063 -0.10019218 88.1535698 -0.1061602 94.53764266 -0.10290974 C98.34631266 -0.10110077 102.15484743 -0.10369402 105.96349525 -0.11762428 C109.54801404 -0.13024426 113.13223848 -0.12821948 116.71675301 -0.11521339 C118.64986572 -0.11173823 120.58298759 -0.1229958 122.5160675 -0.13478088 C130.19228718 -0.08856038 136.03002044 0.56054463 142.60417175 4.80366516 C147.3013326 8.95808683 150.18730159 12.2663878 152.21354675 18.26069641 C152.21354675 22.88069641 152.21354675 27.50069641 152.21354675 32.26069641 C125.81354675 32.26069641 99.41354675 32.26069641 72.21354675 32.26069641 C72.21354675 66.58069641 72.21354675 100.90069641 72.21354675 136.26069641 C98.61354675 136.26069641 125.01354675 136.26069641 152.21354675 136.26069641 C152.29604675 143.50007141 152.37854675 150.73944641 152.46354675 158.19819641 C152.49996277 160.46557678 152.53637878 162.73295715 152.57389832 165.06904602 C152.58559478 166.89203447 152.59578433 168.71503348 152.60417175 170.53804016 C152.62463562 171.46362732 152.64509949 172.38921448 152.66618347 173.34284973 C152.66955372 179.70503835 151.56596413 184.78653797 148.21354675 190.26069641 C147.68158691 190.77136154 147.14962708 191.28202667 146.60154724 191.8081665 C146.14350708 192.28750137 145.68546692 192.76683624 145.21354675 193.26069641 C144.77887876 196.61259394 144.77887876 196.61259394 144.77604675 200.38569641 C144.51885071 206.67153759 143.82493156 211.9754634 140.21354675 217.26069641 C136.83728506 221.11248792 133.11966923 222.94203204 128.21354675 224.26069641 C121.29127866 225.04767274 112.90153806 225.59569241 106.46354675 222.63569641 C101.99766259 219.79194954 99.10730937 216.21846214 96.90104675 211.38569641 C96.21354675 208.26069641 96.21354675 208.26069641 96.21354675 200.26069641 C75.09354675 200.26069641 53.97354675 200.26069641 32.21354675 200.26069641 C32.21354675 202.90069641 32.21354675 205.54069641 32.21354675 208.26069641 C31.01272939 212.9156296 28.94506004 216.9713161 25.33854675 220.19819641 C18.31144428 224.83608405 11.41429676 224.76489874 3.29948425 224.57319641 C-0.68982875 224.35648407 -3.86813567 223.69803316 -7.27864075 221.52632141 C-11.76347599 217.7618483 -14.24061117 213.96737333 -15.78645325 208.26069641 C-15.94917677 205.76382402 -16.05064801 203.26239929 -16.09895325 200.76069641 C-16.25447995 195.79642835 -16.25447995 195.79642835 -17.88801575 191.16304016 C-19.1269959 189.80450929 -20.45423587 188.52792758 -21.78645325 187.26069641 C-24.26028332 181.87214523 -24.04487766 176.63482011 -23.98176575 170.83100891 C-23.97975159 169.95243225 -23.97773743 169.07385559 -23.97566223 168.1686554 C-23.96525077 164.90761545 -23.93732838 161.64665032 -23.91145325 158.38569641 C-23.87020325 151.08444641 -23.82895325 143.78319641 -23.78645325 136.26069641 C2.61354675 136.26069641 29.01354675 136.26069641 56.21354675 136.26069641 C56.21354675 101.94069641 56.21354675 67.62069641 56.21354675 32.26069641 C29.81354675 32.26069641 3.41354675 32.26069641 -23.78645325 32.26069641 C-23.78645325 16.26783927 -23.78645325 16.26783927 -21.25520325 12.07319641 C-15.45161498 4.91132153 -9.44554131 0.01933903 0 0 Z " fill="#FEB300" transform="translate(191.7864532470703,103.73930358886719)" />
<path d="M0 0 C26.4 0 52.8 0 80 0 C80 34.32 80 68.64 80 104 C53.6 104 27.2 104 0 104 C0 96.08 0 88.16 0 80 C-2.02125 80.0825 -4.0425 80.165 -6.125 80.25 C-10.38400105 80.24537568 -12.67164623 80.155536 -16.5625 78.3125 C-19.93475919 75.11317718 -22.5164906 72.45052819 -24 68 C-24.28563869 63.90059235 -24.27766471 59.79574208 -24.3125 55.6875 C-24.34150391 54.55892578 -24.37050781 53.43035156 -24.40039062 52.26757812 C-24.47170638 42.94715784 -24.47170638 42.94715784 -22.14453125 39.3515625 C-19.40160243 36.34383363 -16.65665772 33.82832886 -13 32 C-8.71 32 -4.42 32 0 32 C0 21.44 0 10.88 0 0 Z " fill="#42A5F5" transform="translate(168,136)" />
<path d="M0 0 C26.4 0 52.8 0 80 0 C80 10.56 80 21.12 80 32 C83.96 32 87.92 32 92 32 C95.97336266 33.30037323 98.13494278 34.96893813 100.8125 38.0625 C103.95209543 42.27852815 103.95209543 42.27852815 104.16113281 45.42675781 C104.20656832 48.70128417 104.23529825 51.97518428 104.25 55.25 C104.270625 56.38308594 104.29125 57.51617187 104.3125 58.68359375 C104.3346008 63.39659011 104.30534388 67.16748889 102.671875 71.62109375 C100.3861256 74.87348016 98.21317788 76.6570578 95 79 C92 80 92 80 80 80 C80 87.92 80 95.84 80 104 C53.6 104 27.2 104 0 104 C0 69.68 0 35.36 0 0 Z " fill="#42A5F5" transform="translate(264,136)" />
<path d="M0 0 C0 15.84 0 31.68 0 48 C-13 48 -13 48 -16.5625 46.3125 C-19.93475919 43.11317718 -22.5164906 40.45052819 -24 36 C-24.28563869 31.90059235 -24.27766471 27.79574208 -24.3125 23.6875 C-24.34150391 22.55892578 -24.37050781 21.43035156 -24.40039062 20.26757812 C-24.47170638 10.94715784 -24.47170638 10.94715784 -22.14453125 7.3515625 C-14.65416155 -0.86192122 -12.36636981 0 0 0 Z " fill="#273339" transform="translate(168,168)" />
<path d="M0 0 C12 0 12 0 15.4375 1.125 C19.10614538 3.80937467 21.94416083 6.88832166 24 11 C24.27075166 15.07768411 24.23165813 19.16434848 24.25 23.25 C24.270625 24.38308594 24.29125 25.51617187 24.3125 26.68359375 C24.3346008 31.39659011 24.30534388 35.16748889 22.671875 39.62109375 C20.3861256 42.87348016 18.21317788 44.6570578 15 47 C12 48 12 48 0 48 C0 32.16 0 16.32 0 0 Z " fill="#273339" transform="translate(344,168)" />
<path d="M0 0 C0.74615104 14.57067163 0.74615104 14.57067163 -2.734375 21.1640625 C-5.37306333 24.99178939 -8.32725246 27.30791293 -12.671875 29.10546875 C-19.85280816 31.03555525 -28.48638292 31.1446637 -35.7109375 29.3125 C-40.30089388 27.20217523 -43.18336649 24.1421081 -46 20 C-48.19792274 15.18550257 -48.05852872 11.18245228 -48 6 C-46.42702148 5.97812622 -46.42702148 5.97812622 -44.82226562 5.95581055 C-40.90070918 5.89747367 -36.97970585 5.82024563 -33.05859375 5.73754883 C-31.36727939 5.70446491 -29.67585901 5.67638241 -27.984375 5.65356445 C-25.54121061 5.61971164 -23.09900345 5.56738492 -20.65625 5.51171875 C-19.91008423 5.50532883 -19.16391846 5.4989389 -18.3951416 5.49235535 C-11.90331351 5.31391814 -5.42071556 0 0 0 Z " fill="#283339" transform="translate(336,298)" />
<path d="M0 0 C0.49419434 0.35151123 0.98838867 0.70302246 1.49755859 1.06518555 C10.33084146 6.43698136 19.6263049 5.78193145 29.625 5.8125 C31.41018635 5.83567792 33.19534563 5.86105003 34.98046875 5.88867188 C39.32041368 5.95109881 43.65964652 5.98376903 48 6 C48.07250821 12.7070097 47.59865777 17.17994854 44 23 C40.65740741 26.86839367 36.88908313 28.68591545 32 30 C25.07773191 30.78697633 16.68799131 31.334996 10.25 28.375 C6.70265408 26.11615193 4.36063863 23.4715274 2 20 C0.11092121 15.40848905 -0.21828587 11.5691509 -0.125 6.625 C-0.10695312 5.37976563 -0.08890625 4.13453125 -0.0703125 2.8515625 C-0.04710937 1.91054688 -0.02390625 0.96953125 0 0 Z " fill="#283339" transform="translate(176,298)" />
<path d="M0 0 C2.18416987 -0.01945715 4.36871275 -0.0105491 6.55273438 0.02148438 C8.28892029 0.02142395 8.28892029 0.02142395 10.06018066 0.0213623 C12.50453122 0.02671784 14.94888131 0.0443017 17.39306641 0.07324219 C21.13302271 0.11508377 24.8711773 0.11431072 28.61132812 0.10742188 C30.98764271 0.11791492 33.36394803 0.13085363 35.74023438 0.14648438 C36.85805298 0.14668579 37.97587158 0.14688721 39.12756348 0.14709473 C40.69443909 0.17096252 40.69443909 0.17096252 42.29296875 0.1953125 C43.66600159 0.20794128 43.66600159 0.20794128 45.06677246 0.2208252 C48.18706664 0.69788337 50.09531072 1.78450064 52.64648438 3.61523438 C54.05106174 6.42438911 53.89543595 8.50333972 53.64648438 11.61523438 C52.33398438 13.92773438 52.33398438 13.92773438 50.64648438 15.61523438 C47.66898928 16.60773274 45.63174503 16.76459794 42.52001953 16.80810547 C41.47528473 16.8241684 40.43054993 16.84023132 39.35415649 16.85678101 C34.58637174 16.9012578 29.81872482 16.94227742 25.05078125 16.96533203 C22.53473676 16.98191062 20.01873973 17.00922519 17.50292969 17.04736328 C13.87605347 17.10205654 10.25027962 17.12399359 6.62304688 17.13867188 C4.93690781 17.17267593 4.93690781 17.17267593 3.21670532 17.20736694 C0.27583234 17.19939236 -2.45833363 17.13105862 -5.35351562 16.61523438 C-8.56298828 14.27001953 -8.56298828 14.27001953 -10.35351562 11.61523438 C-10.97851562 8.61523438 -10.97851562 8.61523438 -10.35351562 5.61523438 C-7.43059198 1.29923069 -5.01297465 0.2769201 0 0 Z " fill="#273337" transform="translate(234.353515625,263.384765625)" />
<path d="M0 0 C3 0.625 3 0.625 5.875 2.75 C8 5.625 8 5.625 8.625 8.625 C8 11.625 8 11.625 5.875 14.5 C3 16.625 3 16.625 0 17.25 C-3 16.625 -3 16.625 -5.875 14.5 C-8 11.625 -8 11.625 -8.625 8.625 C-8 5.625 -8 5.625 -5.875 2.75 C-3 0.625 -3 0.625 0 0 Z " fill="#EEEBE2" transform="translate(304,263.375)" />
<path d="M0 0 C3 0.625 3 0.625 5.875 2.75 C8 5.625 8 5.625 8.625 8.625 C8 11.625 8 11.625 5.875 14.5 C3 16.625 3 16.625 0 17.25 C-3 16.625 -3 16.625 -5.875 14.5 C-8 11.625 -8 11.625 -8.625 8.625 C-8 5.625 -8 5.625 -5.875 2.75 C-3 0.625 -3 0.625 0 0 Z " fill="#EEEBE2" transform="translate(208,263.375)" />
</svg>
